# This file uses centimeters as units for non-parametric coordinates.

mtllib Port_Tower.mtl
g default
v 70.739934 21.266619 7.235525
v 70.739934 21.266619 7.636032
v 70.739934 21.645033 7.235525
v 70.739934 21.645033 7.636032
v 77.106901 21.645033 7.235525
v 77.106901 21.645033 7.636032
v 77.106901 21.266619 7.235525
v 77.106901 21.266619 7.636032
vt 0.821562 0.496806
vt 0.821562 0.002756
vt 0.979615 0.002756
vt 0.979615 0.496806
vt 0.000979 0.999002
vt 0.000979 0.504952
vt 0.159031 0.504952
vt 0.159031 0.999002
vt 0.163385 0.495048
vt 0.163385 0.000998
vt 0.657436 0.000998
vt 0.657436 0.495048
vt 0.657434 0.502355
vt 0.657434 0.996407
vt 0.163385 0.996407
vt 0.163385 0.502355
vt 0.000979 0.496806
vt 0.000979 0.002755
vt 0.159030 0.002755
vt 0.159030 0.496806
vt 0.661293 0.496450
vt 0.661293 0.002396
vt 0.819342 0.002396
vt 0.819342 0.496450
vn -1.000000 0.000000 0.000000
vn -1.000000 0.000000 0.000000
vn -1.000000 0.000000 0.000000
vn -1.000000 0.000000 0.000000
vn 0.000000 1.000000 0.000000
vn 0.000000 1.000000 0.000000
vn 0.000000 1.000000 0.000000
vn 0.000000 1.000000 0.000000
vn 1.000000 0.000000 0.000000
vn 1.000000 0.000000 0.000000
vn 1.000000 0.000000 0.000000
vn 1.000000 0.000000 0.000000
vn 0.000000 0.000000 1.000000
vn 0.000000 0.000000 1.000000
vn 0.000000 0.000000 1.000000
vn 0.000000 0.000000 1.000000
vn -0.000000 0.000000 -1.000000
vn -0.000000 0.000000 -1.000000
vn -0.000000 0.000000 -1.000000
vn -0.000000 0.000000 -1.000000
vn 0.000000 -1.000000 0.000000
vn 0.000000 -1.000000 0.000000
vn 0.000000 -1.000000 0.000000
vn 0.000000 -1.000000 0.000000
s off
g pCube9
usemtl initialShadingGroup
f 1/17/1 2/18/2 4/19/3 3/20/4
f 3/9/5 4/10/6 6/11/7 5/12/8
f 5/21/9 6/22/10 8/23/11 7/24/12
f 2/1/13 8/2/14 6/3/15 4/4/16
f 7/5/17 1/6/18 3/7/19 5/8/20
f 2/13/21 1/14/22 7/15/23 8/16/24
g default
v 70.739934 21.266619 11.041602
v 70.739934 21.266619 11.442110
v 70.739934 21.645033 11.041602
v 70.739934 21.645033 11.442110
v 77.106901 21.645033 11.041602
v 77.106901 21.645033 11.442110
v 77.106901 21.266619 11.041602
v 77.106901 21.266619 11.442110
vt 0.821562 0.496806
vt 0.821562 0.002756
vt 0.979615 0.002756
vt 0.979615 0.496806
vt 0.000979 0.999002
vt 0.000979 0.504952
vt 0.159031 0.504952
vt 0.159031 0.999002
vt 0.163385 0.495048
vt 0.163385 0.000998
vt 0.657436 0.000998
vt 0.657436 0.495048
vt 0.657434 0.502355
vt 0.657434 0.996407
vt 0.163385 0.996407
vt 0.163385 0.502355
vt 0.000979 0.496806
vt 0.000979 0.002755
vt 0.159030 0.002755
vt 0.159030 0.496806
vt 0.661293 0.496450
vt 0.661293 0.002396
vt 0.819342 0.002396
vt 0.819342 0.496450
vn -1.000000 0.000000 0.000000
vn -1.000000 0.000000 0.000000
vn -1.000000 0.000000 0.000000
vn -1.000000 0.000000 0.000000
vn 0.000000 1.000000 0.000000
vn 0.000000 1.000000 0.000000
vn 0.000000 1.000000 0.000000
vn 0.000000 1.000000 0.000000
vn 1.000000 0.000000 0.000000
vn 1.000000 0.000000 0.000000
vn 1.000000 0.000000 0.000000
vn 1.000000 0.000000 0.000000
vn 0.000000 0.000000 1.000000
vn 0.000000 0.000000 1.000000
vn 0.000000 0.000000 1.000000
vn 0.000000 0.000000 1.000000
vn -0.000000 0.000000 -1.000000
vn -0.000000 0.000000 -1.000000
vn -0.000000 0.000000 -1.000000
vn -0.000000 0.000000 -1.000000
vn 0.000000 -1.000000 0.000000
vn 0.000000 -1.000000 0.000000
vn 0.000000 -1.000000 0.000000
vn 0.000000 -1.000000 0.000000
s off
g pCube13
usemtl initialShadingGroup
f 9/41/25 10/42/26 12/43/27 11/44/28
f 11/33/29 12/34/30 14/35/31 13/36/32
f 13/45/33 14/46/34 16/47/35 15/48/36
f 10/25/37 16/26/38 14/27/39 12/28/40
f 15/29/41 9/30/42 11/31/43 13/32/44
f 10/37/45 9/38/46 15/39/47 16/40/48
g default
v 70.739934 21.266619 8.137439
v 70.739934 21.266619 8.537947
v 70.739934 21.645033 8.137439
v 70.739934 21.645033 8.537947
v 77.106901 21.645033 8.137439
v 77.106901 21.645033 8.537947
v 77.106901 21.266619 8.137439
v 77.106901 21.266619 8.537947
vt 0.821562 0.496806
vt 0.821562 0.002756
vt 0.979615 0.002756
vt 0.979615 0.496806
vt 0.000979 0.999002
vt 0.000979 0.504952
vt 0.159031 0.504952
vt 0.159031 0.999002
vt 0.163385 0.495048
vt 0.163385 0.000998
vt 0.657436 0.000998
vt 0.657436 0.495048
vt 0.657434 0.502355
vt 0.657434 0.996407
vt 0.163385 0.996407
vt 0.163385 0.502355
vt 0.000979 0.496806
vt 0.000979 0.002755
vt 0.159030 0.002755
vt 0.159030 0.496806
vt 0.661293 0.496450
vt 0.661293 0.002396
vt 0.819342 0.002396
vt 0.819342 0.496450
vn -1.000000 0.000000 0.000000
vn -1.000000 0.000000 0.000000
vn -1.000000 0.000000 0.000000
vn -1.000000 0.000000 0.000000
vn 0.000000 1.000000 0.000000
vn 0.000000 1.000000 0.000000
vn 0.000000 1.000000 0.000000
vn 0.000000 1.000000 0.000000
vn 1.000000 0.000000 0.000000
vn 1.000000 0.000000 0.000000
vn 1.000000 0.000000 0.000000
vn 1.000000 0.000000 0.000000
vn 0.000000 0.000000 1.000000
vn 0.000000 0.000000 1.000000
vn 0.000000 0.000000 1.000000
vn 0.000000 0.000000 1.000000
vn -0.000000 0.000000 -1.000000
vn -0.000000 0.000000 -1.000000
vn -0.000000 0.000000 -1.000000
vn -0.000000 0.000000 -1.000000
vn 0.000000 -1.000000 0.000000
vn 0.000000 -1.000000 0.000000
vn 0.000000 -1.000000 0.000000
vn 0.000000 -1.000000 0.000000
s off
g pCube10
usemtl initialShadingGroup
f 17/65/49 18/66/50 20/67/51 19/68/52
f 19/57/53 20/58/54 22/59/55 21/60/56
f 21/69/57 22/70/58 24/71/59 23/72/60
f 18/49/61 24/50/62 22/51/63 20/52/64
f 23/53/65 17/54/66 19/55/67 21/56/68
f 18/61/69 17/62/70 23/63/71 24/64/72
g default
v 73.059111 21.266619 12.672042
v 73.459619 21.266619 12.672042
v 73.059111 21.645033 12.672042
v 73.459619 21.645033 12.672042
v 73.059111 21.645033 6.305075
v 73.459619 21.645033 6.305075
v 73.059111 21.266619 6.305075
v 73.459619 21.266619 6.305075
vt 0.821562 0.496806
vt 0.821562 0.002756
vt 0.979615 0.002756
vt 0.979615 0.496806
vt 0.000979 0.999002
vt 0.000979 0.504952
vt 0.159031 0.504952
vt 0.159031 0.999002
vt 0.163385 0.495048
vt 0.163385 0.000998
vt 0.657436 0.000998
vt 0.657436 0.495048
vt 0.657434 0.502355
vt 0.657434 0.996407
vt 0.163385 0.996407
vt 0.163385 0.502355
vt 0.000979 0.496806
vt 0.000979 0.002755
vt 0.159030 0.002755
vt 0.159030 0.496806
vt 0.661293 0.496450
vt 0.661293 0.002396
vt 0.819342 0.002396
vt 0.819342 0.496450
vn 0.000000 0.000000 1.000000
vn 0.000000 0.000000 1.000000
vn 0.000000 0.000000 1.000000
vn 0.000000 0.000000 1.000000
vn 0.000000 1.000000 0.000000
vn 0.000000 1.000000 0.000000
vn 0.000000 1.000000 0.000000
vn 0.000000 1.000000 0.000000
vn 0.000000 0.000000 -1.000000
vn 0.000000 0.000000 -1.000000
vn 0.000000 0.000000 -1.000000
vn 0.000000 0.000000 -1.000000
vn 1.000000 0.000000 0.000000
vn 1.000000 0.000000 0.000000
vn 1.000000 0.000000 0.000000
vn 1.000000 0.000000 0.000000
vn -1.000000 0.000000 0.000000
vn -1.000000 0.000000 0.000000
vn -1.000000 0.000000 0.000000
vn -1.000000 0.000000 0.000000
vn 0.000000 -1.000000 0.000000
vn 0.000000 -1.000000 0.000000
vn 0.000000 -1.000000 0.000000
vn 0.000000 -1.000000 0.000000
s off
g pCube7
usemtl initialShadingGroup
f 25/89/73 26/90/74 28/91/75 27/92/76
f 27/81/77 28/82/78 30/83/79 29/84/80
f 29/93/81 30/94/82 32/95/83 31/96/84
f 26/73/85 32/74/86 30/75/87 28/76/88
f 31/77/89 25/78/90 27/79/91 29/80/92
f 26/85/93 25/86/94 31/87/95 32/88/96
g default
v 70.739934 21.266619 9.093477
v 70.739934 21.266619 9.493984
v 70.739934 21.645033 9.093477
v 70.739934 21.645033 9.493984
v 77.106901 21.645033 9.093477
v 77.106901 21.645033 9.493984
v 77.106901 21.266619 9.093477
v 77.106901 21.266619 9.493984
vt 0.821562 0.496806
vt 0.821562 0.002756
vt 0.979615 0.002756
vt 0.979615 0.496806
vt 0.000979 0.999002
vt 0.000979 0.504952
vt 0.159031 0.504952
vt 0.159031 0.999002
vt 0.163385 0.495048
vt 0.163385 0.000998
vt 0.657436 0.000998
vt 0.657436 0.495048
vt 0.657434 0.502355
vt 0.657434 0.996407
vt 0.163385 0.996407
vt 0.163385 0.502355
vt 0.000979 0.496806
vt 0.000979 0.002755
vt 0.159030 0.002755
vt 0.159030 0.496806
vt 0.661293 0.496450
vt 0.661293 0.002396
vt 0.819342 0.002396
vt 0.819342 0.496450
vn -1.000000 0.000000 0.000000
vn -1.000000 0.000000 0.000000
vn -1.000000 0.000000 0.000000
vn -1.000000 0.000000 0.000000
vn 0.000000 1.000000 0.000000
vn 0.000000 1.000000 0.000000
vn 0.000000 1.000000 0.000000
vn 0.000000 1.000000 0.000000
vn 1.000000 0.000000 0.000000
vn 1.000000 0.000000 0.000000
vn 1.000000 0.000000 0.000000
vn 1.000000 0.000000 0.000000
vn 0.000000 0.000000 1.000000
vn 0.000000 0.000000 1.000000
vn 0.000000 0.000000 1.000000
vn 0.000000 0.000000 1.000000
vn -0.000000 0.000000 -1.000000
vn -0.000000 0.000000 -1.000000
vn -0.000000 0.000000 -1.000000
vn -0.000000 0.000000 -1.000000
vn 0.000000 -1.000000 0.000000
vn 0.000000 -1.000000 0.000000
vn 0.000000 -1.000000 0.000000
vn 0.000000 -1.000000 0.000000
s off
g pCube11
usemtl initialShadingGroup
f 33/113/97 34/114/98 36/115/99 35/116/100
f 35/105/101 36/106/102 38/107/103 37/108/104
f 37/117/105 38/118/106 40/119/107 39/120/108
f 34/97/109 40/98/110 38/99/111 36/100/112
f 39/101/113 33/102/114 35/103/115 37/104/116
f 34/109/117 33/110/118 39/111/119 40/112/120
g default
v 70.739934 21.266619 10.084998
v 70.739934 21.266619 10.485506
v 70.739934 21.645033 10.084998
v 70.739934 21.645033 10.485506
v 77.106901 21.645033 10.084998
v 77.106901 21.645033 10.485506
v 77.106901 21.266619 10.084998
v 77.106901 21.266619 10.485506
vt 0.821562 0.496806
vt 0.821562 0.002756
vt 0.979615 0.002756
vt 0.979615 0.496806
vt 0.000979 0.999002
vt 0.000979 0.504952
vt 0.159031 0.504952
vt 0.159031 0.999002
vt 0.163385 0.495048
vt 0.163385 0.000998
vt 0.657436 0.000998
vt 0.657436 0.495048
vt 0.657434 0.502355
vt 0.657434 0.996407
vt 0.163385 0.996407
vt 0.163385 0.502355
vt 0.000979 0.496806
vt 0.000979 0.002755
vt 0.159030 0.002755
vt 0.159030 0.496806
vt 0.661293 0.496450
vt 0.661293 0.002396
vt 0.819342 0.002396
vt 0.819342 0.496450
vn -1.000000 0.000000 0.000000
vn -1.000000 0.000000 0.000000
vn -1.000000 0.000000 0.000000
vn -1.000000 0.000000 0.000000
vn 0.000000 1.000000 0.000000
vn 0.000000 1.000000 0.000000
vn 0.000000 1.000000 0.000000
vn 0.000000 1.000000 0.000000
vn 1.000000 0.000000 0.000000
vn 1.000000 0.000000 0.000000
vn 1.000000 0.000000 0.000000
vn 1.000000 0.000000 0.000000
vn 0.000000 0.000000 1.000000
vn 0.000000 0.000000 1.000000
vn 0.000000 0.000000 1.000000
vn 0.000000 0.000000 1.000000
vn -0.000000 0.000000 -1.000000
vn -0.000000 0.000000 -1.000000
vn -0.000000 0.000000 -1.000000
vn -0.000000 0.000000 -1.000000
vn 0.000000 -1.000000 0.000000
vn 0.000000 -1.000000 0.000000
vn 0.000000 -1.000000 0.000000
vn 0.000000 -1.000000 0.000000
s off
g pCube12
usemtl initialShadingGroup
f 41/137/121 42/138/122 44/139/123 43/140/124
f 43/129/125 44/130/126 46/131/127 45/132/128
f 45/141/129 46/142/130 48/143/131 47/144/132
f 42/121/133 48/122/134 46/123/135 44/124/136
f 47/125/137 41/126/138 43/127/139 45/128/140
f 42/133/141 41/134/142 47/135/143 48/136/144
g default
v 71.969003 21.266619 12.672042
v 72.369511 21.266619 12.672042
v 71.969003 21.645033 12.672042
v 72.369511 21.645033 12.672042
v 71.969003 21.645033 6.305075
v 72.369511 21.645033 6.305075
v 71.969003 21.266619 6.305075
v 72.369511 21.266619 6.305075
vt 0.821562 0.496806
vt 0.821562 0.002756
vt 0.979615 0.002756
vt 0.979615 0.496806
vt 0.000979 0.999002
vt 0.000979 0.504952
vt 0.159031 0.504952
vt 0.159031 0.999002
vt 0.163385 0.495048
vt 0.163385 0.000998
vt 0.657436 0.000998
vt 0.657436 0.495048
vt 0.657434 0.502355
vt 0.657434 0.996407
vt 0.163385 0.996407
vt 0.163385 0.502355
vt 0.000979 0.496806
vt 0.000979 0.002755
vt 0.159030 0.002755
vt 0.159030 0.496806
vt 0.661293 0.496450
vt 0.661293 0.002396
vt 0.819342 0.002396
vt 0.819342 0.496450
vn 0.000000 0.000000 1.000000
vn 0.000000 0.000000 1.000000
vn 0.000000 0.000000 1.000000
vn 0.000000 0.000000 1.000000
vn 0.000000 1.000000 0.000000
vn 0.000000 1.000000 0.000000
vn 0.000000 1.000000 0.000000
vn 0.000000 1.000000 0.000000
vn 0.000000 0.000000 -1.000000
vn 0.000000 0.000000 -1.000000
vn 0.000000 0.000000 -1.000000
vn 0.000000 0.000000 -1.000000
vn 1.000000 0.000000 0.000000
vn 1.000000 0.000000 0.000000
vn 1.000000 0.000000 0.000000
vn 1.000000 0.000000 0.000000
vn -1.000000 0.000000 0.000000
vn -1.000000 0.000000 0.000000
vn -1.000000 0.000000 0.000000
vn -1.000000 0.000000 0.000000
vn 0.000000 -1.000000 0.000000
vn 0.000000 -1.000000 0.000000
vn 0.000000 -1.000000 0.000000
vn 0.000000 -1.000000 0.000000
s off
g pCube8
usemtl initialShadingGroup
f 49/161/145 50/162/146 52/163/147 51/164/148
f 51/153/149 52/154/150 54/155/151 53/156/152
f 53/165/153 54/166/154 56/167/155 55/168/156
f 50/145/157 56/146/158 54/147/159 52/148/160
f 55/149/161 49/150/162 51/151/163 53/152/164
f 50/157/165 49/158/166 55/159/167 56/160/168
g default
v 70.872398 21.645033 12.453064
v 76.846443 21.645033 12.453064
v 70.872398 22.023447 12.453064
v 76.846443 22.023447 12.453064
v 70.872398 22.023447 6.479048
v 76.846443 22.023447 6.479048
v 70.872398 21.645033 6.479048
v 76.846443 21.645033 6.479048
vt 0.821562 0.496806
vt 0.821562 0.002756
vt 0.979615 0.002756
vt 0.979615 0.496806
vt 0.000979 0.999002
vt 0.000979 0.504952
vt 0.159031 0.504952
vt 0.159031 0.999002
vt 0.163385 0.495048
vt 0.163385 0.000998
vt 0.657436 0.000998
vt 0.657436 0.495048
vt 0.657434 0.502355
vt 0.657434 0.996407
vt 0.163385 0.996407
vt 0.163385 0.502355
vt 0.000979 0.496806
vt 0.000979 0.002755
vt 0.159030 0.002755
vt 0.159030 0.496806
vt 0.661293 0.496450
vt 0.661293 0.002396
vt 0.819342 0.002396
vt 0.819342 0.496450
vn 0.000000 0.000000 1.000000
vn 0.000000 0.000000 1.000000
vn 0.000000 0.000000 1.000000
vn 0.000000 0.000000 1.000000
vn 0.000000 1.000000 0.000000
vn 0.000000 1.000000 0.000000
vn 0.000000 1.000000 0.000000
vn 0.000000 1.000000 0.000000
vn 0.000000 0.000000 -1.000000
vn 0.000000 0.000000 -1.000000
vn 0.000000 0.000000 -1.000000
vn 0.000000 0.000000 -1.000000
vn 1.000000 0.000000 0.000000
vn 1.000000 0.000000 0.000000
vn 1.000000 0.000000 0.000000
vn 1.000000 0.000000 0.000000
vn -1.000000 0.000000 0.000000
vn -1.000000 0.000000 0.000000
vn -1.000000 0.000000 0.000000
vn -1.000000 0.000000 0.000000
vn 0.000000 -1.000000 0.000000
vn 0.000000 -1.000000 0.000000
vn 0.000000 -1.000000 0.000000
vn 0.000000 -1.000000 0.000000
s off
g pCube2
usemtl initialShadingGroup
f 57/185/169 58/186/170 60/187/171 59/188/172
f 59/177/173 60/178/174 62/179/175 61/180/176
f 61/189/177 62/190/178 64/191/179 63/192/180
f 58/169/181 64/170/182 62/171/183 60/172/184
f 63/173/185 57/174/186 59/175/187 61/176/188
f 58/181/189 57/182/190 63/183/191 64/184/192
g default
v 70.872398 10.534985 12.453064
v 76.846443 10.534985 12.453064
v 70.872398 10.913400 12.453064
v 76.846443 10.913400 12.453064
v 70.872398 10.913400 6.479048
v 76.846443 10.913400 6.479048
v 70.872398 10.534985 6.479048
v 76.846443 10.534985 6.479048
vt 0.821562 0.496806
vt 0.821562 0.002756
vt 0.979615 0.002756
vt 0.979615 0.496806
vt 0.000979 0.999002
vt 0.000979 0.504952
vt 0.159031 0.504952
vt 0.159031 0.999002
vt 0.163385 0.495048
vt 0.163385 0.000998
vt 0.657436 0.000998
vt 0.657436 0.495048
vt 0.657434 0.502355
vt 0.657434 0.996407
vt 0.163385 0.996407
vt 0.163385 0.502355
vt 0.000979 0.496806
vt 0.000979 0.002755
vt 0.159030 0.002755
vt 0.159030 0.496806
vt 0.661293 0.496450
vt 0.661293 0.002396
vt 0.819342 0.002396
vt 0.819342 0.496450
vn 0.000000 0.000000 1.000000
vn 0.000000 0.000000 1.000000
vn 0.000000 0.000000 1.000000
vn 0.000000 0.000000 1.000000
vn 0.000000 1.000000 0.000000
vn 0.000000 1.000000 0.000000
vn 0.000000 1.000000 0.000000
vn 0.000000 1.000000 0.000000
vn 0.000000 0.000000 -1.000000
vn 0.000000 0.000000 -1.000000
vn 0.000000 0.000000 -1.000000
vn 0.000000 0.000000 -1.000000
vn 1.000000 0.000000 0.000000
vn 1.000000 0.000000 0.000000
vn 1.000000 0.000000 0.000000
vn 1.000000 0.000000 0.000000
vn -1.000000 0.000000 0.000000
vn -1.000000 0.000000 0.000000
vn -1.000000 0.000000 0.000000
vn -1.000000 0.000000 0.000000
vn 0.000000 -1.000000 0.000000
vn 0.000000 -1.000000 0.000000
vn 0.000000 -1.000000 0.000000
vn 0.000000 -1.000000 0.000000
s off
g pCube3
usemtl initialShadingGroup
f 65/209/193 66/210/194 68/211/195 67/212/196
f 67/201/197 68/202/198 70/203/199 69/204/200
f 69/213/201 70/214/202 72/215/203 71/216/204
f 66/193/205 72/194/206 70/195/207 68/196/208
f 71/197/209 65/198/210 67/199/211 69/200/212
f 66/205/213 65/206/214 71/207/215 72/208/216
g default
v 75.335840 21.266619 12.672042
v 75.736348 21.266619 12.672042
v 75.335840 21.645033 12.672042
v 75.736348 21.645033 12.672042
v 75.335840 21.645033 6.305075
v 75.736348 21.645033 6.305075
v 75.335840 21.266619 6.305075
v 75.736348 21.266619 6.305075
vt 0.821562 0.496806
vt 0.821562 0.002756
vt 0.979615 0.002756
vt 0.979615 0.496806
vt 0.000979 0.999002
vt 0.000979 0.504952
vt 0.159031 0.504952
vt 0.159031 0.999002
vt 0.163385 0.495048
vt 0.163385 0.000998
vt 0.657436 0.000998
vt 0.657436 0.495048
vt 0.657434 0.502355
vt 0.657434 0.996407
vt 0.163385 0.996407
vt 0.163385 0.502355
vt 0.000979 0.496806
vt 0.000979 0.002755
vt 0.159030 0.002755
vt 0.159030 0.496806
vt 0.661293 0.496450
vt 0.661293 0.002396
vt 0.819342 0.002396
vt 0.819342 0.496450
vn 0.000000 0.000000 1.000000
vn 0.000000 0.000000 1.000000
vn 0.000000 0.000000 1.000000
vn 0.000000 0.000000 1.000000
vn 0.000000 1.000000 0.000000
vn 0.000000 1.000000 0.000000
vn 0.000000 1.000000 0.000000
vn 0.000000 1.000000 0.000000
vn 0.000000 0.000000 -1.000000
vn 0.000000 0.000000 -1.000000
vn 0.000000 0.000000 -1.000000
vn 0.000000 0.000000 -1.000000
vn 1.000000 0.000000 0.000000
vn 1.000000 0.000000 0.000000
vn 1.000000 0.000000 0.000000
vn 1.000000 0.000000 0.000000
vn -1.000000 0.000000 0.000000
vn -1.000000 0.000000 0.000000
vn -1.000000 0.000000 0.000000
vn -1.000000 0.000000 0.000000
vn 0.000000 -1.000000 0.000000
vn 0.000000 -1.000000 0.000000
vn 0.000000 -1.000000 0.000000
vn 0.000000 -1.000000 0.000000
s off
g pCube5
usemtl initialShadingGroup
f 73/233/217 74/234/218 76/235/219 75/236/220
f 75/225/221 76/226/222 78/227/223 77/228/224
f 77/237/225 78/238/226 80/239/227 79/240/228
f 74/217/229 80/218/230 78/219/231 76/220/232
f 79/221/233 73/222/234 75/223/235 77/224/236
f 74/229/237 73/230/238 79/231/239 80/232/240
g default
v 71.359436 -0.196650 11.966051
v 76.359429 -0.196650 11.966051
v 71.359436 22.373142 11.966051
v 76.359429 22.373142 11.966051
v 71.359436 22.373142 6.966075
v 76.359429 22.373142 6.966075
v 71.359436 -0.196650 6.966075
v 76.359429 -0.196650 6.966075
vt 0.594071 0.000998
vt 0.887767 0.000998
vt 0.887767 0.496745
vt 0.594071 0.496745
vt 0.000887 0.503255
vt 0.294584 0.503255
vt 0.294584 0.999002
vt 0.000887 0.999002
vt 0.594071 0.797378
vt 0.594071 0.503681
vt 0.887767 0.503681
vt 0.887767 0.797378
vt 0.000887 0.000998
vt 0.294585 0.000998
vt 0.294585 0.496745
vt 0.000887 0.496745
vt 0.297479 0.002648
vt 0.591177 0.002648
vt 0.591177 0.498395
vt 0.297479 0.498395
vn 0.000000 0.000000 1.000000
vn 0.000000 0.000000 1.000000
vn 0.000000 0.000000 1.000000
vn 0.000000 0.000000 1.000000
vn 0.000000 1.000000 0.000000
vn 0.000000 1.000000 0.000000
vn 0.000000 1.000000 0.000000
vn 0.000000 1.000000 0.000000
vn 0.000000 0.000000 -1.000000
vn 0.000000 0.000000 -1.000000
vn 0.000000 0.000000 -1.000000
vn 0.000000 0.000000 -1.000000
vn 1.000000 0.000000 0.000000
vn 1.000000 0.000000 0.000000
vn 1.000000 0.000000 0.000000
vn 1.000000 0.000000 0.000000
vn -1.000000 0.000000 0.000000
vn -1.000000 0.000000 0.000000
vn -1.000000 0.000000 0.000000
vn -1.000000 0.000000 0.000000
s off
g pCube1
usemtl initialShadingGroup
f 81/253/241 82/254/242 84/255/243 83/256/244
f 83/249/245 84/250/246 86/251/247 85/252/248
f 85/257/249 86/258/250 88/259/251 87/260/252
f 82/241/253 88/242/254 86/243/255 84/244/256
f 87/245/257 81/246/258 83/247/259 85/248/260
g default
v 74.237159 21.266619 12.672042
v 74.637666 21.266619 12.672042
v 74.237159 21.645033 12.672042
v 74.637666 21.645033 12.672042
v 74.237159 21.645033 6.305075
v 74.637666 21.645033 6.305075
v 74.237159 21.266619 6.305075
v 74.637666 21.266619 6.305075
vt 0.821562 0.496806
vt 0.821562 0.002756
vt 0.979615 0.002756
vt 0.979615 0.496806
vt 0.000979 0.999002
vt 0.000979 0.504952
vt 0.159031 0.504952
vt 0.159031 0.999002
vt 0.163385 0.495048
vt 0.163385 0.000998
vt 0.657436 0.000998
vt 0.657436 0.495048
vt 0.657434 0.502355
vt 0.657434 0.996407
vt 0.163385 0.996407
vt 0.163385 0.502355
vt 0.000979 0.496806
vt 0.000979 0.002755
vt 0.159030 0.002755
vt 0.159030 0.496806
vt 0.661293 0.496450
vt 0.661293 0.002396
vt 0.819342 0.002396
vt 0.819342 0.496450
vn 0.000000 0.000000 1.000000
vn 0.000000 0.000000 1.000000
vn 0.000000 0.000000 1.000000
vn 0.000000 0.000000 1.000000
vn 0.000000 1.000000 0.000000
vn 0.000000 1.000000 0.000000
vn 0.000000 1.000000 0.000000
vn 0.000000 1.000000 0.000000
vn 0.000000 0.000000 -1.000000
vn 0.000000 0.000000 -1.000000
vn 0.000000 0.000000 -1.000000
vn 0.000000 0.000000 -1.000000
vn 1.000000 0.000000 0.000000
vn 1.000000 0.000000 0.000000
vn 1.000000 0.000000 0.000000
vn 1.000000 0.000000 0.000000
vn -1.000000 0.000000 0.000000
vn -1.000000 0.000000 0.000000
vn -1.000000 0.000000 0.000000
vn -1.000000 0.000000 0.000000
vn 0.000000 -1.000000 0.000000
vn 0.000000 -1.000000 0.000000
vn 0.000000 -1.000000 0.000000
vn 0.000000 -1.000000 0.000000
s off
g pCube6
usemtl initialShadingGroup
f 89/277/261 90/278/262 92/279/263 91/280/264
f 91/269/265 92/270/266 94/271/267 93/272/268
f 93/281/269 94/282/270 96/283/271 95/284/272
f 90/261/273 96/262/274 94/263/275 92/264/276
f 95/265/277 89/266/278 91/267/279 93/268/280
f 90/273/281 89/274/282 95/275/283 96/276/284
